<mxfile host="app.diagrams.net" agent="Mozilla/5.0 (Windows NT 10.0; Win64; x64) AppleWebKit/537.36 (KHTML, like Gecko) Chrome/126.0.0.0 YaBrowser/24.7.0.0 Safari/537.36" version="24.7.14">
  <diagram name="Страница — 1" id="45YZaPkz6Q9s-rQ9UpkF">
    <mxGraphModel dx="1626" dy="777" grid="1" gridSize="10" guides="1" tooltips="1" connect="1" arrows="1" fold="1" page="1" pageScale="1" pageWidth="827" pageHeight="1169" math="0" shadow="0">
      <root>
        <mxCell id="0" />
        <mxCell id="1" parent="0" />
        <mxCell id="qHs83EOR6wrhIw-jNYz0-8" style="edgeStyle=orthogonalEdgeStyle;rounded=0;orthogonalLoop=1;jettySize=auto;html=1;" edge="1" parent="1" source="qHs83EOR6wrhIw-jNYz0-1" target="qHs83EOR6wrhIw-jNYz0-2">
          <mxGeometry relative="1" as="geometry" />
        </mxCell>
        <mxCell id="qHs83EOR6wrhIw-jNYz0-9" style="edgeStyle=orthogonalEdgeStyle;rounded=0;orthogonalLoop=1;jettySize=auto;html=1;" edge="1" parent="1" source="qHs83EOR6wrhIw-jNYz0-1" target="qHs83EOR6wrhIw-jNYz0-3">
          <mxGeometry relative="1" as="geometry" />
        </mxCell>
        <mxCell id="qHs83EOR6wrhIw-jNYz0-11" style="edgeStyle=orthogonalEdgeStyle;rounded=0;orthogonalLoop=1;jettySize=auto;html=1;entryX=0.5;entryY=0;entryDx=0;entryDy=0;" edge="1" parent="1" source="qHs83EOR6wrhIw-jNYz0-1" target="qHs83EOR6wrhIw-jNYz0-5">
          <mxGeometry relative="1" as="geometry" />
        </mxCell>
        <mxCell id="qHs83EOR6wrhIw-jNYz0-12" style="edgeStyle=orthogonalEdgeStyle;rounded=0;orthogonalLoop=1;jettySize=auto;html=1;entryX=0.5;entryY=0;entryDx=0;entryDy=0;" edge="1" parent="1" source="qHs83EOR6wrhIw-jNYz0-1" target="qHs83EOR6wrhIw-jNYz0-6">
          <mxGeometry relative="1" as="geometry" />
        </mxCell>
        <mxCell id="qHs83EOR6wrhIw-jNYz0-48" style="edgeStyle=orthogonalEdgeStyle;rounded=0;orthogonalLoop=1;jettySize=auto;html=1;entryX=0.5;entryY=0;entryDx=0;entryDy=0;" edge="1" parent="1" source="qHs83EOR6wrhIw-jNYz0-1" target="qHs83EOR6wrhIw-jNYz0-4">
          <mxGeometry relative="1" as="geometry" />
        </mxCell>
        <mxCell id="qHs83EOR6wrhIw-jNYz0-1" value="Руководство" style="rounded=0;whiteSpace=wrap;html=1;" vertex="1" parent="1">
          <mxGeometry x="354" y="40" width="120" height="60" as="geometry" />
        </mxCell>
        <mxCell id="qHs83EOR6wrhIw-jNYz0-58" style="edgeStyle=orthogonalEdgeStyle;rounded=0;orthogonalLoop=1;jettySize=auto;html=1;" edge="1" parent="1" source="qHs83EOR6wrhIw-jNYz0-2" target="qHs83EOR6wrhIw-jNYz0-13">
          <mxGeometry relative="1" as="geometry" />
        </mxCell>
        <mxCell id="qHs83EOR6wrhIw-jNYz0-2" value="Маркетинговый&amp;nbsp;&lt;div&gt;отдел&lt;/div&gt;" style="rounded=0;whiteSpace=wrap;html=1;" vertex="1" parent="1">
          <mxGeometry x="40" y="280" width="120" height="60" as="geometry" />
        </mxCell>
        <mxCell id="qHs83EOR6wrhIw-jNYz0-59" style="edgeStyle=orthogonalEdgeStyle;rounded=0;orthogonalLoop=1;jettySize=auto;html=1;" edge="1" parent="1" source="qHs83EOR6wrhIw-jNYz0-3" target="qHs83EOR6wrhIw-jNYz0-17">
          <mxGeometry relative="1" as="geometry" />
        </mxCell>
        <mxCell id="qHs83EOR6wrhIw-jNYz0-3" value="Аналитический&lt;div&gt;отдел&lt;/div&gt;" style="rounded=0;whiteSpace=wrap;html=1;" vertex="1" parent="1">
          <mxGeometry x="200" y="280" width="120" height="60" as="geometry" />
        </mxCell>
        <mxCell id="qHs83EOR6wrhIw-jNYz0-61" style="edgeStyle=orthogonalEdgeStyle;rounded=0;orthogonalLoop=1;jettySize=auto;html=1;" edge="1" parent="1" source="qHs83EOR6wrhIw-jNYz0-4" target="qHs83EOR6wrhIw-jNYz0-21">
          <mxGeometry relative="1" as="geometry" />
        </mxCell>
        <mxCell id="qHs83EOR6wrhIw-jNYz0-4" value="Методический&lt;div&gt;отдел&lt;/div&gt;" style="rounded=0;whiteSpace=wrap;html=1;" vertex="1" parent="1">
          <mxGeometry x="354" y="280" width="120" height="60" as="geometry" />
        </mxCell>
        <mxCell id="qHs83EOR6wrhIw-jNYz0-63" style="edgeStyle=orthogonalEdgeStyle;rounded=0;orthogonalLoop=1;jettySize=auto;html=1;entryX=0.5;entryY=0;entryDx=0;entryDy=0;" edge="1" parent="1" source="qHs83EOR6wrhIw-jNYz0-5" target="qHs83EOR6wrhIw-jNYz0-25">
          <mxGeometry relative="1" as="geometry" />
        </mxCell>
        <mxCell id="qHs83EOR6wrhIw-jNYz0-5" value="Отдел цифрового развития" style="rounded=0;whiteSpace=wrap;html=1;" vertex="1" parent="1">
          <mxGeometry x="519" y="280" width="120" height="60" as="geometry" />
        </mxCell>
        <mxCell id="qHs83EOR6wrhIw-jNYz0-62" style="edgeStyle=orthogonalEdgeStyle;rounded=0;orthogonalLoop=1;jettySize=auto;html=1;entryX=0.5;entryY=0;entryDx=0;entryDy=0;" edge="1" parent="1" source="qHs83EOR6wrhIw-jNYz0-6" target="qHs83EOR6wrhIw-jNYz0-29">
          <mxGeometry relative="1" as="geometry" />
        </mxCell>
        <mxCell id="qHs83EOR6wrhIw-jNYz0-6" value="Отдел по связям с общественностью" style="rounded=0;whiteSpace=wrap;html=1;" vertex="1" parent="1">
          <mxGeometry x="701.5" y="280" width="120" height="60" as="geometry" />
        </mxCell>
        <mxCell id="qHs83EOR6wrhIw-jNYz0-13" value="Сотрудник 1" style="swimlane;fontStyle=0;childLayout=stackLayout;horizontal=1;startSize=30;horizontalStack=0;resizeParent=1;resizeParentMax=0;resizeLast=0;collapsible=1;marginBottom=0;whiteSpace=wrap;html=1;" vertex="1" parent="1">
          <mxGeometry x="30" y="380" width="140" height="30" as="geometry" />
        </mxCell>
        <mxCell id="qHs83EOR6wrhIw-jNYz0-17" value="Сотрудник 2" style="swimlane;fontStyle=0;childLayout=stackLayout;horizontal=1;startSize=30;horizontalStack=0;resizeParent=1;resizeParentMax=0;resizeLast=0;collapsible=1;marginBottom=0;whiteSpace=wrap;html=1;" vertex="1" parent="1">
          <mxGeometry x="190" y="380" width="140" height="90" as="geometry" />
        </mxCell>
        <mxCell id="qHs83EOR6wrhIw-jNYz0-18" value="Аналитик 1&amp;nbsp;" style="text;strokeColor=none;fillColor=none;align=left;verticalAlign=middle;spacingLeft=4;spacingRight=4;overflow=hidden;points=[[0,0.5],[1,0.5]];portConstraint=eastwest;rotatable=0;whiteSpace=wrap;html=1;" vertex="1" parent="qHs83EOR6wrhIw-jNYz0-17">
          <mxGeometry y="30" width="140" height="30" as="geometry" />
        </mxCell>
        <mxCell id="qHs83EOR6wrhIw-jNYz0-19" value="Аналитик 2" style="text;strokeColor=none;fillColor=none;align=left;verticalAlign=middle;spacingLeft=4;spacingRight=4;overflow=hidden;points=[[0,0.5],[1,0.5]];portConstraint=eastwest;rotatable=0;whiteSpace=wrap;html=1;" vertex="1" parent="qHs83EOR6wrhIw-jNYz0-17">
          <mxGeometry y="60" width="140" height="30" as="geometry" />
        </mxCell>
        <mxCell id="qHs83EOR6wrhIw-jNYz0-21" value="Заместитель руководителя по образовательной деятельности" style="swimlane;fontStyle=0;childLayout=stackLayout;horizontal=1;startSize=70;horizontalStack=0;resizeParent=1;resizeParentMax=0;resizeLast=0;collapsible=1;marginBottom=0;whiteSpace=wrap;html=1;" vertex="1" parent="1">
          <mxGeometry x="344" y="380" width="140" height="200" as="geometry" />
        </mxCell>
        <mxCell id="qHs83EOR6wrhIw-jNYz0-53" value="Методист 1" style="text;strokeColor=none;fillColor=none;align=left;verticalAlign=middle;spacingLeft=4;spacingRight=4;overflow=hidden;points=[[0,0.5],[1,0.5]];portConstraint=eastwest;rotatable=0;whiteSpace=wrap;html=1;" vertex="1" parent="qHs83EOR6wrhIw-jNYz0-21">
          <mxGeometry y="70" width="140" height="30" as="geometry" />
        </mxCell>
        <mxCell id="qHs83EOR6wrhIw-jNYz0-54" value="Методист 2" style="text;strokeColor=none;fillColor=none;align=left;verticalAlign=middle;spacingLeft=4;spacingRight=4;overflow=hidden;points=[[0,0.5],[1,0.5]];portConstraint=eastwest;rotatable=0;whiteSpace=wrap;html=1;" vertex="1" parent="qHs83EOR6wrhIw-jNYz0-21">
          <mxGeometry y="100" width="140" height="30" as="geometry" />
        </mxCell>
        <mxCell id="qHs83EOR6wrhIw-jNYz0-22" value="Методист 3" style="text;strokeColor=none;fillColor=none;align=left;verticalAlign=middle;spacingLeft=4;spacingRight=4;overflow=hidden;points=[[0,0.5],[1,0.5]];portConstraint=eastwest;rotatable=0;whiteSpace=wrap;html=1;" vertex="1" parent="qHs83EOR6wrhIw-jNYz0-21">
          <mxGeometry y="130" width="140" height="40" as="geometry" />
        </mxCell>
        <mxCell id="qHs83EOR6wrhIw-jNYz0-55" value="Методист 4" style="text;strokeColor=none;fillColor=none;align=left;verticalAlign=middle;spacingLeft=4;spacingRight=4;overflow=hidden;points=[[0,0.5],[1,0.5]];portConstraint=eastwest;rotatable=0;whiteSpace=wrap;html=1;" vertex="1" parent="qHs83EOR6wrhIw-jNYz0-21">
          <mxGeometry y="170" width="140" height="30" as="geometry" />
        </mxCell>
        <mxCell id="qHs83EOR6wrhIw-jNYz0-25" value="Начальник отдела цифрового развития" style="swimlane;fontStyle=0;childLayout=stackLayout;horizontal=1;startSize=70;horizontalStack=0;resizeParent=1;resizeParentMax=0;resizeLast=0;collapsible=1;marginBottom=0;whiteSpace=wrap;html=1;" vertex="1" parent="1">
          <mxGeometry x="509" y="380" width="140" height="130" as="geometry" />
        </mxCell>
        <mxCell id="qHs83EOR6wrhIw-jNYz0-26" value="Инженер-программист" style="text;strokeColor=none;fillColor=none;align=left;verticalAlign=middle;spacingLeft=4;spacingRight=4;overflow=hidden;points=[[0,0.5],[1,0.5]];portConstraint=eastwest;rotatable=0;whiteSpace=wrap;html=1;" vertex="1" parent="qHs83EOR6wrhIw-jNYz0-25">
          <mxGeometry y="70" width="140" height="30" as="geometry" />
        </mxCell>
        <mxCell id="qHs83EOR6wrhIw-jNYz0-27" value="Системный администратор" style="text;strokeColor=none;fillColor=none;align=left;verticalAlign=middle;spacingLeft=4;spacingRight=4;overflow=hidden;points=[[0,0.5],[1,0.5]];portConstraint=eastwest;rotatable=0;whiteSpace=wrap;html=1;" vertex="1" parent="qHs83EOR6wrhIw-jNYz0-25">
          <mxGeometry y="100" width="140" height="30" as="geometry" />
        </mxCell>
        <mxCell id="qHs83EOR6wrhIw-jNYz0-29" value="&lt;div style=&quot;text-align: center;&quot;&gt;Заместитель руководителя по информационно-просветительской деятельности&lt;/div&gt;" style="swimlane;fontStyle=0;childLayout=stackLayout;horizontal=1;startSize=70;horizontalStack=0;resizeParent=1;resizeParentMax=0;resizeLast=0;collapsible=1;marginBottom=0;whiteSpace=wrap;html=1;" vertex="1" parent="1">
          <mxGeometry x="696" y="380" width="131" height="70" as="geometry" />
        </mxCell>
      </root>
    </mxGraphModel>
  </diagram>
</mxfile>
